<mxfile host="app.diagrams.net" modified="2024-01-05T21:57:23.947Z" agent="Mozilla/5.0 (Windows NT 10.0; Win64; x64) AppleWebKit/537.36 (KHTML, like Gecko) Chrome/120.0.0.0 Safari/537.36" etag="ecD0UVrsxNxTrUf708C5" version="22.1.16" type="github">
  <diagram name="Page-1" id="FavIiO_On8jeepOU1Gb4">
    <mxGraphModel dx="1050" dy="522" grid="1" gridSize="10" guides="1" tooltips="1" connect="1" arrows="1" fold="1" page="1" pageScale="1" pageWidth="850" pageHeight="1100" math="0" shadow="0">
      <root>
        <mxCell id="0" />
        <mxCell id="1" parent="0" />
        <mxCell id="EQATGkMoCbNwmrRgMAHa-1" value="/trigger_search&amp;nbsp;: trigger_search()" style="shape=process;whiteSpace=wrap;html=1;backgroundOutline=1;" parent="1" vertex="1">
          <mxGeometry x="670" y="10" width="300" height="60" as="geometry" />
        </mxCell>
        <mxCell id="EQATGkMoCbNwmrRgMAHa-2" value="/ : hello_world()" style="shape=process;whiteSpace=wrap;html=1;backgroundOutline=1;" parent="1" vertex="1">
          <mxGeometry x="10" y="10" width="300" height="60" as="geometry" />
        </mxCell>
        <mxCell id="EQATGkMoCbNwmrRgMAHa-4" value="/api/movies&amp;nbsp;:&amp;nbsp;get_movies&lt;span style=&quot;background-color: initial;&quot;&gt;()&lt;/span&gt;" style="shape=process;whiteSpace=wrap;html=1;backgroundOutline=1;" parent="1" vertex="1">
          <mxGeometry x="340" y="10" width="300" height="60" as="geometry" />
        </mxCell>
        <mxCell id="EQATGkMoCbNwmrRgMAHa-5" value="jsonify(movies_list)" style="shape=note;whiteSpace=wrap;html=1;backgroundOutline=1;darkOpacity=0.05;" parent="1" vertex="1">
          <mxGeometry x="415" y="190" width="150" height="100" as="geometry" />
        </mxCell>
        <mxCell id="EQATGkMoCbNwmrRgMAHa-6" value="" style="endArrow=classic;html=1;rounded=0;exitX=0.5;exitY=1;exitDx=0;exitDy=0;entryX=0.5;entryY=0;entryDx=0;entryDy=0;entryPerimeter=0;" parent="1" source="EQATGkMoCbNwmrRgMAHa-4" target="EQATGkMoCbNwmrRgMAHa-5" edge="1">
          <mxGeometry width="50" height="50" relative="1" as="geometry">
            <mxPoint x="380" y="280" as="sourcePoint" />
            <mxPoint x="430" y="230" as="targetPoint" />
          </mxGeometry>
        </mxCell>
        <mxCell id="EQATGkMoCbNwmrRgMAHa-7" value="Hello, World! This is the home page." style="text;html=1;strokeColor=none;fillColor=none;align=center;verticalAlign=middle;whiteSpace=wrap;rounded=0;" parent="1" vertex="1">
          <mxGeometry x="85" y="212.5" width="150" height="55" as="geometry" />
        </mxCell>
        <mxCell id="EQATGkMoCbNwmrRgMAHa-8" value="" style="endArrow=classic;html=1;rounded=0;exitX=0.5;exitY=1;exitDx=0;exitDy=0;entryX=0.5;entryY=0;entryDx=0;entryDy=0;" parent="1" source="EQATGkMoCbNwmrRgMAHa-2" target="EQATGkMoCbNwmrRgMAHa-7" edge="1">
          <mxGeometry width="50" height="50" relative="1" as="geometry">
            <mxPoint x="380" y="270" as="sourcePoint" />
            <mxPoint x="430" y="220" as="targetPoint" />
          </mxGeometry>
        </mxCell>
        <mxCell id="EQATGkMoCbNwmrRgMAHa-9" value="TMDB API" style="ellipse;shape=cloud;whiteSpace=wrap;html=1;" parent="1" vertex="1">
          <mxGeometry x="1370" y="78" width="300" height="180" as="geometry" />
        </mxCell>
        <mxCell id="EQATGkMoCbNwmrRgMAHa-10" value="Youtube API" style="ellipse;shape=cloud;whiteSpace=wrap;html=1;" parent="1" vertex="1">
          <mxGeometry x="1180" y="310" width="300" height="180" as="geometry" />
        </mxCell>
        <mxCell id="EQATGkMoCbNwmrRgMAHa-11" value="" style="endArrow=classic;html=1;rounded=0;exitX=0.75;exitY=1;exitDx=0;exitDy=0;entryX=0;entryY=0.5;entryDx=0;entryDy=0;" parent="1" source="EQATGkMoCbNwmrRgMAHa-1" target="9s-flS4JJ0_3nxGiOLHN-1" edge="1">
          <mxGeometry width="50" height="50" relative="1" as="geometry">
            <mxPoint x="1030" y="270" as="sourcePoint" />
            <mxPoint x="1080" y="220" as="targetPoint" />
            <Array as="points">
              <mxPoint x="895" y="150" />
            </Array>
          </mxGeometry>
        </mxCell>
        <mxCell id="EQATGkMoCbNwmrRgMAHa-12" value="" style="endArrow=classic;html=1;rounded=0;exitX=0.13;exitY=0.77;exitDx=0;exitDy=0;exitPerimeter=0;entryX=0.5;entryY=1;entryDx=0;entryDy=0;" parent="1" source="EQATGkMoCbNwmrRgMAHa-9" target="9s-flS4JJ0_3nxGiOLHN-1" edge="1">
          <mxGeometry width="50" height="50" relative="1" as="geometry">
            <mxPoint x="1030" y="270" as="sourcePoint" />
            <mxPoint x="1080" y="220" as="targetPoint" />
            <Array as="points">
              <mxPoint x="1180" y="217" />
            </Array>
          </mxGeometry>
        </mxCell>
        <mxCell id="EQATGkMoCbNwmrRgMAHa-13" value="" style="endArrow=classic;html=1;rounded=0;exitX=0.25;exitY=1;exitDx=0;exitDy=0;entryX=0;entryY=0.5;entryDx=0;entryDy=0;" parent="1" source="EQATGkMoCbNwmrRgMAHa-1" target="9s-flS4JJ0_3nxGiOLHN-5" edge="1">
          <mxGeometry width="50" height="50" relative="1" as="geometry">
            <mxPoint x="840" y="380" as="sourcePoint" />
            <mxPoint x="820" y="390" as="targetPoint" />
            <Array as="points">
              <mxPoint x="745" y="382" />
            </Array>
          </mxGeometry>
        </mxCell>
        <mxCell id="EQATGkMoCbNwmrRgMAHa-14" value="Master data (Title, poster URL, ec)" style="text;html=1;strokeColor=none;fillColor=none;align=center;verticalAlign=middle;whiteSpace=wrap;rounded=0;" parent="1" vertex="1">
          <mxGeometry x="1150" y="70" width="60" height="30" as="geometry" />
        </mxCell>
        <mxCell id="EQATGkMoCbNwmrRgMAHa-15" value="Trailer URL" style="text;html=1;strokeColor=none;fillColor=none;align=center;verticalAlign=middle;whiteSpace=wrap;rounded=0;" parent="1" vertex="1">
          <mxGeometry x="1300" y="280" width="60" height="30" as="geometry" />
        </mxCell>
        <mxCell id="9s-flS4JJ0_3nxGiOLHN-1" value="fetch_horror_movies_from_tmdb()" style="shape=process;whiteSpace=wrap;html=1;backgroundOutline=1;" vertex="1" parent="1">
          <mxGeometry x="1060" y="120" width="240" height="60" as="geometry" />
        </mxCell>
        <mxCell id="9s-flS4JJ0_3nxGiOLHN-3" value="" style="endArrow=classic;html=1;rounded=0;exitX=1;exitY=0.5;exitDx=0;exitDy=0;entryX=0.07;entryY=0.4;entryDx=0;entryDy=0;entryPerimeter=0;" edge="1" parent="1" source="9s-flS4JJ0_3nxGiOLHN-1" target="EQATGkMoCbNwmrRgMAHa-9">
          <mxGeometry width="50" height="50" relative="1" as="geometry">
            <mxPoint x="1180" y="200" as="sourcePoint" />
            <mxPoint x="1230" y="150" as="targetPoint" />
            <Array as="points" />
          </mxGeometry>
        </mxCell>
        <mxCell id="9s-flS4JJ0_3nxGiOLHN-4" value="movie" style="shape=cube;whiteSpace=wrap;html=1;boundedLbl=1;backgroundOutline=1;darkOpacity=0.05;darkOpacity2=0.1;" vertex="1" parent="1">
          <mxGeometry x="930" y="212.5" width="120" height="80" as="geometry" />
        </mxCell>
        <mxCell id="9s-flS4JJ0_3nxGiOLHN-5" value="fetch_horror_movies_from_tmdb()" style="shape=process;whiteSpace=wrap;html=1;backgroundOutline=1;" vertex="1" parent="1">
          <mxGeometry x="850" y="352" width="280" height="60" as="geometry" />
        </mxCell>
        <mxCell id="9s-flS4JJ0_3nxGiOLHN-6" value="" style="endArrow=classic;html=1;rounded=0;exitX=1;exitY=0.5;exitDx=0;exitDy=0;entryX=0.07;entryY=0.4;entryDx=0;entryDy=0;entryPerimeter=0;" edge="1" parent="1" source="9s-flS4JJ0_3nxGiOLHN-5" target="EQATGkMoCbNwmrRgMAHa-10">
          <mxGeometry width="50" height="50" relative="1" as="geometry">
            <mxPoint x="1180" y="300" as="sourcePoint" />
            <mxPoint x="1230" y="250" as="targetPoint" />
          </mxGeometry>
        </mxCell>
        <mxCell id="9s-flS4JJ0_3nxGiOLHN-7" value="" style="endArrow=classic;html=1;rounded=0;exitX=0.13;exitY=0.77;exitDx=0;exitDy=0;exitPerimeter=0;entryX=0.449;entryY=0.967;entryDx=0;entryDy=0;entryPerimeter=0;" edge="1" parent="1" source="EQATGkMoCbNwmrRgMAHa-10" target="9s-flS4JJ0_3nxGiOLHN-5">
          <mxGeometry width="50" height="50" relative="1" as="geometry">
            <mxPoint x="1180" y="300" as="sourcePoint" />
            <mxPoint x="1230" y="250" as="targetPoint" />
            <Array as="points">
              <mxPoint x="976" y="450" />
            </Array>
          </mxGeometry>
        </mxCell>
        <mxCell id="9s-flS4JJ0_3nxGiOLHN-8" value="" style="endArrow=classic;html=1;rounded=0;exitX=0.536;exitY=-0.033;exitDx=0;exitDy=0;exitPerimeter=0;entryX=0;entryY=0;entryDx=70;entryDy=80;entryPerimeter=0;" edge="1" parent="1" source="9s-flS4JJ0_3nxGiOLHN-5" target="9s-flS4JJ0_3nxGiOLHN-4">
          <mxGeometry width="50" height="50" relative="1" as="geometry">
            <mxPoint x="1180" y="300" as="sourcePoint" />
            <mxPoint x="1230" y="250" as="targetPoint" />
          </mxGeometry>
        </mxCell>
        <mxCell id="9s-flS4JJ0_3nxGiOLHN-9" value="" style="endArrow=classic;html=1;rounded=0;exitX=0.25;exitY=1;exitDx=0;exitDy=0;entryX=0;entryY=0;entryDx=120;entryDy=50;entryPerimeter=0;" edge="1" parent="1" source="9s-flS4JJ0_3nxGiOLHN-1" target="9s-flS4JJ0_3nxGiOLHN-4">
          <mxGeometry width="50" height="50" relative="1" as="geometry">
            <mxPoint x="1180" y="300" as="sourcePoint" />
            <mxPoint x="1230" y="250" as="targetPoint" />
            <Array as="points">
              <mxPoint x="1120" y="263" />
            </Array>
          </mxGeometry>
        </mxCell>
      </root>
    </mxGraphModel>
  </diagram>
</mxfile>
